<svg width="20" height="20" viewBox="0 0 20 20" fill="none" xmlns="http://www.w3.org/2000/svg">
<path d="M14.34 0H5.67C2.28 0 0 2.38 0 5.92V14.091C0 17.621 2.28 20 5.67 20H14.34C17.73 20 20 17.621 20 14.091V5.92C20 2.38 17.73 0 14.34 0V0Z" fill="#6A718A"/>
<path d="M8.05614 13.8397C7.08719 13.8397 6.21364 13.256 5.84278 12.3609C5.47191 11.4657 5.67676 10.4353 6.36181 9.75L7.3786 8.73321L8.05614 9.41075L7.03983 10.4271C6.67665 10.7902 6.53481 11.3196 6.66775 11.8157C6.80068 12.3118 7.18819 12.6993 7.6843 12.8323C8.18041 12.9652 8.70975 12.8233 9.07293 12.4602L10.0892 11.4439L10.7668 12.1219L9.75047 13.1382C9.30201 13.5889 8.69193 13.8415 8.05614 13.8397ZM8.39491 11.7826L7.71737 11.1051L11.1056 7.7169L11.7831 8.39444L8.39539 11.7821L8.39491 11.7826ZM12.1223 10.7663L11.4443 10.0888L12.4606 9.07246C12.8288 8.71037 12.9744 8.17865 12.8422 7.67951C12.7099 7.18037 12.3202 6.7905 11.8211 6.65815C11.3219 6.5258 10.7902 6.67132 10.428 7.03936L9.41122 8.05567L8.73368 7.37813L9.75047 6.36134C10.6873 5.43269 12.1985 5.436 13.1313 6.36874C14.064 7.30147 14.0673 8.81271 13.1387 9.74952L12.1223 10.7658V10.7663Z" fill="white"/>
</svg>
