<svg width="69" height="48" viewBox="0 0 69 48" fill="none" xmlns="http://www.w3.org/2000/svg">
<rect width="69" height="48" rx="12" fill="#0653FF"/>
<path d="M24.2532 22.74H20.1232V25.484H24.1132V27.024H20.1232V31H18.5132V21.2H24.2532V22.74ZM26.8513 28.144C26.9633 28.676 27.22 29.0867 27.6213 29.376C28.0226 29.656 28.5126 29.796 29.0913 29.796C29.894 29.796 30.496 29.5067 30.8973 28.928L32.1433 29.656C31.4526 30.6733 30.4306 31.182 29.0773 31.182C27.9386 31.182 27.0193 30.8367 26.3193 30.146C25.6193 29.446 25.2693 28.564 25.2693 27.5C25.2693 26.4547 25.6146 25.582 26.3053 24.882C26.996 24.1727 27.8826 23.818 28.9653 23.818C29.992 23.818 30.832 24.1773 31.4853 24.896C32.148 25.6147 32.4793 26.4873 32.4793 27.514C32.4793 27.6727 32.4606 27.8827 32.4233 28.144H26.8513ZM26.8373 26.912H30.9533C30.8506 26.3427 30.6126 25.9133 30.2393 25.624C29.8753 25.3347 29.446 25.19 28.9513 25.19C28.3913 25.19 27.9246 25.344 27.5513 25.652C27.178 25.96 26.94 26.38 26.8373 26.912ZM37.4917 23.818C38.2944 23.818 38.9431 24.0747 39.4377 24.588C39.9324 25.1013 40.1797 25.806 40.1797 26.702V31H38.6677V26.856C38.6677 26.3333 38.5277 25.932 38.2477 25.652C37.9677 25.372 37.5851 25.232 37.0997 25.232C36.5677 25.232 36.1384 25.4 35.8117 25.736C35.4851 26.0627 35.3217 26.5667 35.3217 27.248V31H33.8097V24H35.3217V24.896C35.7791 24.1773 36.5024 23.818 37.4917 23.818ZM43.2358 22.67C43.0491 22.8567 42.8251 22.95 42.5638 22.95C42.3024 22.95 42.0738 22.8567 41.8778 22.67C41.6911 22.474 41.5978 22.2453 41.5978 21.984C41.5978 21.7227 41.6911 21.4987 41.8778 21.312C42.0644 21.116 42.2931 21.018 42.5638 21.018C42.8344 21.018 43.0631 21.116 43.2498 21.312C43.4364 21.4987 43.5298 21.7227 43.5298 21.984C43.5298 22.2453 43.4318 22.474 43.2358 22.67ZM41.8078 31V24H43.3198V31H41.8078ZM51.3334 31H49.5834L47.8474 28.606L46.0974 31H44.3334L46.9654 27.402L44.4734 24H46.2234L47.8334 26.212L49.4434 24H51.2074L48.7154 27.416L51.3334 31Z" fill="white"/>
<rect x="23" y="5" width="25" height="2" rx="1" fill="white"/>
</svg>
