<svg width="66" height="49" viewBox="0 0 66 49" fill="none" xmlns="http://www.w3.org/2000/svg">
<rect x="20" y="17.3006" width="45.3738" height="31.5644" rx="7.8911" fill="#0653FF"/>
<path d="M35.9487 32.3904H33.2329V34.1948H35.8566V35.2075H33.2329V37.8221H32.1741V31.3777H35.9487V32.3904ZM37.6572 35.944C37.7308 36.2938 37.8996 36.5639 38.1635 36.7541C38.4275 36.9383 38.7497 37.0303 39.1302 37.0303C39.658 37.0303 40.0539 36.8401 40.3178 36.4595L41.1372 36.9383C40.683 37.6073 40.0109 37.9417 39.121 37.9417C38.3722 37.9417 37.7677 37.7147 37.3074 37.2605C36.847 36.8002 36.6169 36.2202 36.6169 35.5205C36.6169 34.8331 36.844 34.2592 37.2982 33.7989C37.7523 33.3325 38.3354 33.0992 39.0473 33.0992C39.7225 33.0992 40.2749 33.3355 40.7045 33.8081C41.1402 34.2807 41.3581 34.8546 41.3581 35.5297C41.3581 35.634 41.3459 35.7721 41.3213 35.944H37.6572ZM37.648 35.1338H40.3546C40.2871 34.7594 40.1306 34.4771 39.8851 34.2869C39.6458 34.0966 39.3634 34.0015 39.0381 34.0015C38.6699 34.0015 38.363 34.1027 38.1175 34.3053C37.872 34.5078 37.7155 34.784 37.648 35.1338ZM44.6543 33.0992C45.1821 33.0992 45.6087 33.268 45.9339 33.6056C46.2592 33.9432 46.4219 34.4065 46.4219 34.9957V37.8221H45.4276V35.097C45.4276 34.7533 45.3355 34.4894 45.1514 34.3053C44.9673 34.1211 44.7156 34.0291 44.3965 34.0291C44.0467 34.0291 43.7643 34.1396 43.5495 34.3605C43.3347 34.5753 43.2273 34.9067 43.2273 35.3548V37.8221H42.233V33.2189H43.2273V33.8081C43.528 33.3355 44.0037 33.0992 44.6543 33.0992ZM48.4315 32.3443C48.3088 32.4671 48.1615 32.5285 47.9896 32.5285C47.8178 32.5285 47.6674 32.4671 47.5385 32.3443C47.4157 32.2154 47.3544 32.0651 47.3544 31.8932C47.3544 31.7214 47.4157 31.5741 47.5385 31.4513C47.6612 31.3224 47.8116 31.258 47.9896 31.258C48.1676 31.258 48.318 31.3224 48.4407 31.4513C48.5635 31.5741 48.6248 31.7214 48.6248 31.8932C48.6248 32.0651 48.5604 32.2154 48.4315 32.3443ZM47.4925 37.8221V33.2189H48.4867V37.8221H47.4925ZM53.7564 37.8221H52.6056L51.464 36.2478L50.3133 37.8221H49.1533L50.884 35.4561L49.2453 33.2189H50.3961L51.4548 34.6735L52.5136 33.2189H53.6736L52.0348 35.4653L53.7564 37.8221Z" fill="white"/>
<rect x="35.125" y="20.5886" width="16.4398" height="1.31518" rx="0.657592" fill="white"/>
<circle cx="8" cy="43" r="6" fill="#E0E0E0"/>
<path d="M9.78141 41.1349C9.87535 41.1405 9.92233 41.1874 9.92233 41.2759L9.91404 44.7822C9.91956 44.8761 9.87535 44.9203 9.78141 44.9148L6.27511 44.9231C6.18669 44.9231 6.13972 44.8761 6.1342 44.7822L6.14248 44.6578C6.14248 44.5694 6.18946 44.5224 6.2834 44.5169L9.24262 44.5252L6.12591 41.4085C6.05959 41.3422 6.05959 41.2759 6.12591 41.2095L6.2088 41.1267C6.27511 41.0603 6.34142 41.0603 6.40774 41.1267L9.52445 44.2434L9.51616 41.2841C9.52168 41.1902 9.56866 41.1432 9.65707 41.1432L9.78141 41.1349Z" fill="#737373"/>
<rect x="0.9375" y="0.435577" width="45.3738" height="31.5644" rx="7.8911" fill="#1B1B1B"/>
<path d="M16.7073 21.0767C15.7376 21.0767 14.9336 20.7576 14.2953 20.1193C13.657 19.4748 13.3378 18.68 13.3378 17.7349C13.3378 16.7897 13.657 15.9979 14.2953 15.3596C14.9336 14.7152 15.7376 14.393 16.7073 14.393C17.2904 14.393 17.8274 14.5311 18.3184 14.8073C18.8156 15.0834 19.2022 15.4578 19.4784 15.9304L18.5578 16.4644C18.386 16.1452 18.1343 15.8936 17.8029 15.7095C17.4776 15.5192 17.1124 15.4241 16.7073 15.4241C16.0199 15.4241 15.4614 15.642 15.0318 16.0777C14.6083 16.5135 14.3966 17.0659 14.3966 17.7349C14.3966 18.4039 14.6083 18.9562 15.0318 19.392C15.4614 19.8278 16.0199 20.0456 16.7073 20.0456C17.1124 20.0456 17.4807 19.9536 17.8121 19.7695C18.1435 19.5792 18.3921 19.3245 18.5578 19.0053L19.4784 19.5301C19.2084 20.0027 18.8248 20.3801 18.3276 20.6625C17.8366 20.9386 17.2965 21.0767 16.7073 21.0767ZM23.9302 16.3539H24.9245V20.9571H23.9302V20.2942C23.5559 20.8159 23.0188 21.0767 22.3191 21.0767C21.687 21.0767 21.1469 20.8435 20.6988 20.3771C20.2508 19.9045 20.0268 19.3306 20.0268 18.6555C20.0268 17.9742 20.2508 17.4004 20.6988 16.9339C21.1469 16.4675 21.687 16.2342 22.3191 16.2342C23.0188 16.2342 23.5559 16.492 23.9302 17.0076V16.3539ZM21.4353 19.7142C21.7115 19.9904 22.0583 20.1285 22.4757 20.1285C22.893 20.1285 23.2398 19.9904 23.516 19.7142C23.7922 19.4319 23.9302 19.079 23.9302 18.6555C23.9302 18.232 23.7922 17.8822 23.516 17.606C23.2398 17.3236 22.893 17.1825 22.4757 17.1825C22.0583 17.1825 21.7115 17.3236 21.4353 17.606C21.1592 17.8822 21.0211 18.232 21.0211 18.6555C21.0211 19.079 21.1592 19.4319 21.4353 19.7142ZM27.0777 17.1272C27.3294 16.5565 27.8019 16.2711 28.4955 16.2711V17.3482C28.115 17.3236 27.7835 17.4157 27.5012 17.6244C27.2189 17.8269 27.0777 18.1645 27.0777 18.6371V20.9571H26.0834V16.3539H27.0777V17.1272ZM32.66 14.5127H33.6543V20.9571H32.66V20.2942C32.2856 20.8159 31.7486 21.0767 31.0489 21.0767C30.4168 21.0767 29.8767 20.8435 29.4286 20.3771C28.9806 19.9045 28.7566 19.3306 28.7566 18.6555C28.7566 17.9742 28.9806 17.4004 29.4286 16.9339C29.8767 16.4675 30.4168 16.2342 31.0489 16.2342C31.7486 16.2342 32.2856 16.492 32.66 17.0076V14.5127ZM30.1651 19.7142C30.4413 19.9904 30.7881 20.1285 31.2054 20.1285C31.6228 20.1285 31.9696 19.9904 32.2458 19.7142C32.5219 19.4319 32.66 19.079 32.66 18.6555C32.66 18.232 32.5219 17.8822 32.2458 17.606C31.9696 17.3236 31.6228 17.1825 31.2054 17.1825C30.7881 17.1825 30.4413 17.3236 30.1651 17.606C29.8889 17.8822 29.7509 18.232 29.7509 18.6555C29.7509 19.079 29.8889 19.4319 30.1651 19.7142Z" fill="white"/>
<rect x="16.0625" y="3.72354" width="16.4398" height="1.31518" rx="0.657592" fill="white"/>
</svg>
