<svg width="65" height="49" viewBox="0 0 65 49" fill="none" xmlns="http://www.w3.org/2000/svg">
<rect x="18.9375" y="17.4356" width="45.3738" height="31.5644" rx="7.8911" fill="#1B1B1B"/>
<path d="M34.8862 32.5253H32.1704V34.3298H34.7941V35.3425H32.1704V37.9571H31.1116V31.5127H34.8862V32.5253ZM36.5947 36.079C36.6683 36.4288 36.8371 36.6989 37.101 36.8891C37.365 37.0733 37.6872 37.1653 38.0677 37.1653C38.5955 37.1653 38.9914 36.975 39.2553 36.5945L40.0747 37.0733C39.6205 37.7422 38.9484 38.0767 38.0585 38.0767C37.3097 38.0767 36.7052 37.8496 36.2449 37.3955C35.7845 36.9352 35.5544 36.3552 35.5544 35.6555C35.5544 34.9681 35.7815 34.3942 36.2357 33.9339C36.6898 33.4675 37.2729 33.2342 37.9848 33.2342C38.66 33.2342 39.2124 33.4705 39.642 33.9431C40.0777 34.4157 40.2956 34.9896 40.2956 35.6647C40.2956 35.769 40.2834 35.9071 40.2588 36.079H36.5947ZM36.5855 35.2688H39.2921C39.2246 34.8944 39.0681 34.6121 38.8226 34.4218C38.5833 34.2316 38.3009 34.1364 37.9756 34.1364C37.6074 34.1364 37.3005 34.2377 37.055 34.4403C36.8095 34.6428 36.653 34.919 36.5855 35.2688ZM43.5918 33.2342C44.1196 33.2342 44.5462 33.403 44.8714 33.7406C45.1967 34.0781 45.3594 34.5415 45.3594 35.1307V37.9571H44.3651V35.232C44.3651 34.8883 44.273 34.6244 44.0889 34.4403C43.9048 34.2561 43.6531 34.1641 43.334 34.1641C42.9842 34.1641 42.7018 34.2745 42.487 34.4955C42.2722 34.7103 42.1648 35.0417 42.1648 35.4898V37.9571H41.1705V33.3539H42.1648V33.9431C42.4655 33.4705 42.9412 33.2342 43.5918 33.2342ZM47.369 32.4793C47.2463 32.6021 47.099 32.6634 46.9271 32.6634C46.7553 32.6634 46.6049 32.6021 46.476 32.4793C46.3532 32.3504 46.2919 32.2001 46.2919 32.0282C46.2919 31.8564 46.3532 31.7091 46.476 31.5863C46.5987 31.4574 46.7491 31.393 46.9271 31.393C47.1051 31.393 47.2555 31.4574 47.3782 31.5863C47.501 31.7091 47.5623 31.8564 47.5623 32.0282C47.5623 32.2001 47.4979 32.3504 47.369 32.4793ZM46.43 37.9571V33.3539H47.4242V37.9571H46.43ZM52.6939 37.9571H51.5431L50.4015 36.3828L49.2508 37.9571H48.0908L49.8215 35.591L48.1828 33.3539H49.3336L50.3923 34.8085L51.4511 33.3539H52.6111L50.9723 35.6002L52.6939 37.9571Z" fill="white"/>
<rect x="34.0625" y="20.7235" width="16.4398" height="1.31518" rx="0.657592" fill="white"/>
<rect y="0.300598" width="45.3738" height="31.5644" rx="7.8911" fill="#0653FF"/>
<path d="M15.9487 15.3904H13.2329V17.1948H15.8566V18.2075H13.2329V20.8221H12.1741V14.3777H15.9487V15.3904ZM17.6572 18.944C17.7308 19.2938 17.8996 19.5639 18.1635 19.7541C18.4275 19.9383 18.7497 20.0303 19.1302 20.0303C19.658 20.0303 20.0539 19.8401 20.3178 19.4595L21.1372 19.9383C20.683 20.6073 20.0109 20.9417 19.121 20.9417C18.3722 20.9417 17.7677 20.7147 17.3074 20.2605C16.847 19.8002 16.6169 19.2202 16.6169 18.5205C16.6169 17.8331 16.844 17.2592 17.2982 16.7989C17.7523 16.3325 18.3354 16.0992 19.0473 16.0992C19.7225 16.0992 20.2749 16.3355 20.7045 16.8081C21.1402 17.2807 21.3581 17.8546 21.3581 18.5297C21.3581 18.634 21.3459 18.7721 21.3213 18.944H17.6572ZM17.648 18.1338H20.3546C20.2871 17.7594 20.1306 17.4771 19.8851 17.2869C19.6458 17.0966 19.3634 17.0015 19.0381 17.0015C18.6699 17.0015 18.363 17.1027 18.1175 17.3053C17.872 17.5078 17.7155 17.784 17.648 18.1338ZM24.6543 16.0992C25.1821 16.0992 25.6087 16.268 25.9339 16.6056C26.2592 16.9432 26.4219 17.4065 26.4219 17.9957V20.8221H25.4276V18.097C25.4276 17.7533 25.3355 17.4894 25.1514 17.3053C24.9673 17.1211 24.7156 17.0291 24.3965 17.0291C24.0467 17.0291 23.7643 17.1396 23.5495 17.3605C23.3347 17.5753 23.2273 17.9067 23.2273 18.3548V20.8221H22.233V16.2189H23.2273V16.8081C23.528 16.3355 24.0037 16.0992 24.6543 16.0992ZM28.4315 15.3443C28.3088 15.4671 28.1615 15.5285 27.9896 15.5285C27.8178 15.5285 27.6674 15.4671 27.5385 15.3443C27.4157 15.2154 27.3544 15.0651 27.3544 14.8932C27.3544 14.7214 27.4157 14.5741 27.5385 14.4513C27.6612 14.3224 27.8116 14.258 27.9896 14.258C28.1676 14.258 28.318 14.3224 28.4407 14.4513C28.5635 14.5741 28.6248 14.7214 28.6248 14.8932C28.6248 15.0651 28.5604 15.2154 28.4315 15.3443ZM27.4925 20.8221V16.2189H28.4867V20.8221H27.4925ZM33.7564 20.8221H32.6056L31.464 19.2478L30.3133 20.8221H29.1533L30.884 18.4561L29.2453 16.2189H30.3961L31.4548 17.6735L32.5136 16.2189H33.6736L32.0348 18.4653L33.7564 20.8221Z" fill="white"/>
<rect x="15.125" y="3.58856" width="16.4398" height="1.31518" rx="0.657592" fill="white"/>
<circle cx="7" cy="43" r="6" fill="#E0E0E0"/>
<path d="M8.78141 41.1349C8.87535 41.1405 8.92233 41.1874 8.92233 41.2759L8.91404 44.7822C8.91956 44.8761 8.87535 44.9203 8.78141 44.9148L5.27511 44.9231C5.18669 44.9231 5.13972 44.8761 5.1342 44.7822L5.14248 44.6578C5.14248 44.5694 5.18946 44.5224 5.2834 44.5169L8.24262 44.5252L5.12591 41.4085C5.05959 41.3422 5.05959 41.2759 5.12591 41.2095L5.2088 41.1267C5.27511 41.0603 5.34142 41.0603 5.40774 41.1267L8.52445 44.2434L8.51616 41.2842C8.52168 41.1902 8.56866 41.1432 8.65707 41.1432L8.78141 41.1349Z" fill="#737373"/>
</svg>
