<svg width="20" height="20" viewBox="0 0 20 20" fill="none" xmlns="http://www.w3.org/2000/svg">
<path d="M5.2962 4.446C5.2962 1.995 7.356 0 9.88764 0H14.9199C17.4454 0 19.5 1.99 19.5 4.436V15.552C19.5 18.004 17.4413 20 14.9096 20H9.87731C7.35187 20 5.2962 18.009 5.2962 15.562V14.622V4.446Z" fill="#0653FF"/>
<path d="M14.0374 9.4538L11.0695 6.5448C10.7627 6.2448 10.2691 6.2448 9.96338 6.5468C9.65867 6.8488 9.65968 7.3358 9.96541 7.6358L11.5905 9.2288H1.2821C0.85042 9.2288 0.5 9.5738 0.5 9.9998C0.5 10.4248 0.85042 10.7688 1.2821 10.7688H11.5905L9.96541 12.3628C9.65968 12.6628 9.65867 13.1498 9.96338 13.4518C10.1168 13.6028 10.3168 13.6788 10.518 13.6788C10.717 13.6788 10.9171 13.6028 11.0695 13.4538L14.0374 10.5448C14.1847 10.3998 14.268 10.2038 14.268 9.9998C14.268 9.7948 14.1847 9.5988 14.0374 9.4538Z" fill="#F8F8F8"/>
</svg>
