<svg width="19" height="19" viewBox="0 0 19 19" fill="none" xmlns="http://www.w3.org/2000/svg">
<rect width="19" height="19" rx="5" fill="#1FA713"/>
<path d="M6.1254 9.9603C6.03488 10.065 5.99084 10.1984 6.00159 10.3362C6.01234 10.474 6.07616 10.5995 6.18194 10.689L8.74943 12.8756C8.8448 12.9566 8.96307 13 9.08723 13C9.10249 13 9.1181 12.9993 9.1337 12.9979C9.27417 12.9855 9.40075 12.919 9.49023 12.8112L13.8816 7.50118C13.9697 7.39437 14.011 7.25999 13.9975 7.12251C13.9836 6.98503 13.9174 6.86099 13.8099 6.77313L13.0059 6.11709C12.7843 5.93654 12.4562 5.96824 12.2738 6.18841L8.89405 10.2752L7.53591 9.11923C7.31811 8.93455 6.98933 8.95901 6.80239 9.17539L6.1254 9.9603Z" fill="white"/>
</svg>
