<svg width="47" height="47" viewBox="0 0 47 47" fill="none" xmlns="http://www.w3.org/2000/svg">
<g filter="url(#filter0_d)">
<circle cx="22.1459" cy="21.168" r="11.6875" fill="white"/>
</g>
<path d="M26.3534 16.7312L26.2826 16.5755C26.0913 16.1722 25.8717 15.7052 25.7372 15.4364C25.4113 14.7996 24.8517 14.4458 24.1647 14.4387H20.8284C20.1413 14.4458 19.5888 14.7996 19.263 15.4364C19.1213 15.7194 18.8805 16.2288 18.6822 16.6463L18.6397 16.7312C18.6184 16.7878 18.5617 16.8161 18.5051 16.8161C16.798 16.8161 15.4167 18.2029 15.4167 19.901V24.1038C15.4167 25.8019 16.798 27.1887 18.5051 27.1887H26.4951C28.1951 27.1887 29.5834 25.8019 29.5834 24.1038V19.901C29.5834 18.2029 28.1951 16.8161 26.4951 16.8161C26.4313 16.8161 26.3817 16.7807 26.3534 16.7312Z" fill="#0840BD"/>
<path fill-rule="evenodd" clip-rule="evenodd" d="M25.8364 19.4483C25.8364 19.8021 26.1197 20.0851 26.4739 20.0851C26.8281 20.0851 27.1185 19.8021 27.1185 19.4483C27.1185 19.0945 26.8281 18.8044 26.4739 18.8044C26.1197 18.8044 25.8364 19.0945 25.8364 19.4483ZM24.4623 23.7219C23.9594 24.2243 23.2652 24.5356 22.5002 24.5356C21.7564 24.5356 21.0623 24.2455 20.531 23.7219C20.0069 23.1912 19.7164 22.4978 19.7164 21.7549C19.7094 21.0191 19.9998 20.3257 20.5239 19.795C21.0552 19.2644 21.7564 18.9743 22.5002 18.9743C23.2439 18.9743 23.9452 19.2644 24.4694 19.7879C24.9935 20.3186 25.2839 21.0191 25.2839 21.7549C25.2769 22.5261 24.9652 23.2195 24.4623 23.7219ZM22.5003 20.0356C22.0399 20.0356 21.6078 20.2125 21.2749 20.545C20.9491 20.8705 20.772 21.3021 20.7791 21.7479V21.7549C20.7791 22.2148 20.9562 22.6464 21.282 22.9719C21.6078 23.2974 22.0399 23.4743 22.5003 23.4743C23.4495 23.4743 24.2145 22.703 24.2216 21.7549C24.2216 21.295 24.0445 20.8634 23.7187 20.5379C23.3928 20.2125 22.9607 20.0356 22.5003 20.0356Z" fill="white"/>
<defs>
<filter id="filter0_d" x="0.541708" y="0.272136" width="46.0417" height="46.0417" filterUnits="userSpaceOnUse" color-interpolation-filters="sRGB">
<feFlood flood-opacity="0" result="BackgroundImageFix"/>
<feColorMatrix in="SourceAlpha" type="matrix" values="0 0 0 0 0 0 0 0 0 0 0 0 0 0 0 0 0 0 127 0"/>
<feOffset dx="1.41667" dy="2.125"/>
<feGaussianBlur stdDeviation="5.66667"/>
<feColorMatrix type="matrix" values="0 0 0 0 0 0 0 0 0 0 0 0 0 0 0 0 0 0 0.14 0"/>
<feBlend mode="normal" in2="BackgroundImageFix" result="effect1_dropShadow"/>
<feBlend mode="normal" in="SourceGraphic" in2="effect1_dropShadow" result="shape"/>
</filter>
</defs>
</svg>
