<svg width="20" height="20" viewBox="0 0 20 20" fill="none" xmlns="http://www.w3.org/2000/svg">
<path fill-rule="evenodd" clip-rule="evenodd" d="M6.41213 1H3.67817C2.1978 1 1 2.2082 1 3.69597V6.45367C1 7.94083 2.19806 9.14963 3.67817 9.14963H6.41213C7.89224 9.14963 9.0903 7.94083 9.0903 6.45367V3.69597C9.0903 2.2082 7.8925 1 6.41213 1ZM3.67817 2.25581H6.41213C7.19649 2.25581 7.83448 2.89935 7.83448 3.69597V6.45367C7.83448 7.24976 7.19615 7.89382 6.41213 7.89382H3.67817C2.89415 7.89382 2.25581 7.24976 2.25581 6.45367V3.69597C2.25581 2.89935 2.89381 2.25581 3.67817 2.25581Z" fill="black"/>
<path fill-rule="evenodd" clip-rule="evenodd" d="M16.3227 1H13.5879C12.1075 1 10.9097 2.2082 10.9097 3.69597V6.45367C10.9097 7.94083 12.1078 9.14963 13.5879 9.14963H16.3227C17.8021 9.14963 19 7.94065 19 6.45367V3.69597C19 2.20837 17.8024 1 16.3227 1ZM13.5879 2.25581H16.3227C17.1063 2.25581 17.7442 2.89944 17.7442 3.69597V6.45367C17.7442 7.24967 17.1059 7.89382 16.3227 7.89382H13.5879C12.8038 7.89382 12.1655 7.24976 12.1655 6.45367V3.69597C12.1655 2.89935 12.8035 2.25581 13.5879 2.25581Z" fill="black"/>
<path fill-rule="evenodd" clip-rule="evenodd" d="M3.67817 10.8504H6.41213C7.89267 10.8504 9.0903 12.0587 9.0903 13.5472V16.304C9.0903 17.7918 7.8925 19 6.41213 19H3.67817C2.1978 19 1 17.7918 1 16.304V13.5472C1 12.0587 2.19763 10.8504 3.67817 10.8504ZM6.41213 12.1062H3.67817C2.89372 12.1062 2.25581 12.7498 2.25581 13.5472V16.304C2.25581 17.1007 2.89381 17.7442 3.67817 17.7442H6.41213C7.19649 17.7442 7.83448 17.1007 7.83448 16.304V13.5472C7.83448 12.7498 7.19658 12.1062 6.41213 12.1062Z" fill="black"/>
<path fill-rule="evenodd" clip-rule="evenodd" d="M16.3227 10.8504H13.5879C12.1073 10.8504 10.9097 12.0587 10.9097 13.5472V16.304C10.9097 17.7918 12.1075 19 13.5879 19H16.3227C17.8024 19 19 17.7916 19 16.304V13.5472C19 12.0589 17.8025 10.8504 16.3227 10.8504ZM13.5879 12.1062H16.3227C17.1064 12.1062 17.7442 12.7499 17.7442 13.5472V16.304C17.7442 17.1006 17.1063 17.7442 16.3227 17.7442H13.5879C12.8035 17.7442 12.1655 17.1007 12.1655 16.304V13.5472C12.1655 12.7498 12.8034 12.1062 13.5879 12.1062Z" fill="black"/>
<path fill-rule="evenodd" clip-rule="evenodd" d="M6.41213 1H3.67817C2.1978 1 1 2.2082 1 3.69597V6.45367C1 7.94083 2.19806 9.14963 3.67817 9.14963H6.41213C7.89224 9.14963 9.0903 7.94083 9.0903 6.45367V3.69597C9.0903 2.2082 7.8925 1 6.41213 1ZM3.67817 2.25581H6.41213C7.19649 2.25581 7.83448 2.89935 7.83448 3.69597V6.45367C7.83448 7.24976 7.19615 7.89382 6.41213 7.89382H3.67817C2.89415 7.89382 2.25581 7.24976 2.25581 6.45367V3.69597C2.25581 2.89935 2.89381 2.25581 3.67817 2.25581Z" stroke="black" stroke-width="0.5"/>
<path fill-rule="evenodd" clip-rule="evenodd" d="M16.3227 1H13.5879C12.1075 1 10.9097 2.2082 10.9097 3.69597V6.45367C10.9097 7.94083 12.1078 9.14963 13.5879 9.14963H16.3227C17.8021 9.14963 19 7.94065 19 6.45367V3.69597C19 2.20837 17.8024 1 16.3227 1ZM13.5879 2.25581H16.3227C17.1063 2.25581 17.7442 2.89944 17.7442 3.69597V6.45367C17.7442 7.24967 17.1059 7.89382 16.3227 7.89382H13.5879C12.8038 7.89382 12.1655 7.24976 12.1655 6.45367V3.69597C12.1655 2.89935 12.8035 2.25581 13.5879 2.25581Z" stroke="black" stroke-width="0.5"/>
<path fill-rule="evenodd" clip-rule="evenodd" d="M3.67817 10.8504H6.41213C7.89267 10.8504 9.0903 12.0587 9.0903 13.5472V16.304C9.0903 17.7918 7.8925 19 6.41213 19H3.67817C2.1978 19 1 17.7918 1 16.304V13.5472C1 12.0587 2.19763 10.8504 3.67817 10.8504ZM6.41213 12.1062H3.67817C2.89372 12.1062 2.25581 12.7498 2.25581 13.5472V16.304C2.25581 17.1007 2.89381 17.7442 3.67817 17.7442H6.41213C7.19649 17.7442 7.83448 17.1007 7.83448 16.304V13.5472C7.83448 12.7498 7.19658 12.1062 6.41213 12.1062Z" stroke="black" stroke-width="0.5"/>
<path fill-rule="evenodd" clip-rule="evenodd" d="M16.3227 10.8504H13.5879C12.1073 10.8504 10.9097 12.0587 10.9097 13.5472V16.304C10.9097 17.7918 12.1075 19 13.5879 19H16.3227C17.8024 19 19 17.7916 19 16.304V13.5472C19 12.0589 17.8025 10.8504 16.3227 10.8504ZM13.5879 12.1062H16.3227C17.1064 12.1062 17.7442 12.7499 17.7442 13.5472V16.304C17.7442 17.1006 17.1063 17.7442 16.3227 17.7442H13.5879C12.8035 17.7442 12.1655 17.1007 12.1655 16.304V13.5472C12.1655 12.7498 12.8034 12.1062 13.5879 12.1062Z" stroke="black" stroke-width="0.5"/>
</svg>
