<svg width="24" height="24" viewBox="0 0 24 24" fill="none" xmlns="http://www.w3.org/2000/svg">
<path fill-rule="evenodd" clip-rule="evenodd" d="M2 12.0002C2 6.478 6.47779 2.00021 12 2.00021C17.5229 2.00021 22 6.47767 22 12.0002C22 17.5228 17.5229 22.0002 12 22.0002C6.47779 22.0002 2 17.5224 2 12.0002ZM20.1 12C20.1 7.58198 16.4511 4 11.95 4C7.44949 4 3.8 7.58232 3.8 12C3.8 16.4177 7.44949 20 11.95 20C16.4511 20 20.1 16.418 20.1 12ZM12.0951 7.45431C12.5254 7.45431 12.8811 7.73647 12.9373 8.10254L12.9451 8.20431V12.6233C12.9451 13.0375 12.5645 13.3733 12.0951 13.3733C11.6648 13.3733 11.3091 13.0912 11.2529 12.7251L11.2451 12.6233V8.20431C11.2451 7.7901 11.6257 7.45431 12.0951 7.45431ZM12.8951 15.8711C12.8951 15.4155 12.5282 15.0461 12.0756 15.0461L11.9534 15.0536C11.5534 15.1083 11.2451 15.4534 11.2451 15.8711C11.2451 16.3267 11.612 16.6961 12.0646 16.6961L12.1868 16.6886C12.5868 16.634 12.8951 16.2888 12.8951 15.8711Z" fill="white"/>
</svg>
